<?xml version="1.0" encoding="UTF-8"?>
<!DOCTYPE svg PUBLIC "-//W3C//DTD SVG 1.1//EN" "http://www.w3.org/Graphics/SVG/1.1/DTD/svg11.dtd">
<!-- Creator: CorelDRAW -->
<svg xmlns="http://www.w3.org/2000/svg" xml:space="preserve" width="200mm" height="50mm" version="1.1" style="shape-rendering:geometricPrecision; text-rendering:geometricPrecision; image-rendering:optimizeQuality; fill-rule:evenodd; clip-rule:evenodd"
viewBox="0 0 20000 5000"
 xmlns:xlink="http://www.w3.org/1999/xlink"
 xmlns:xodm="http://www.corel.com/coreldraw/odm/2003">
 <defs>
  <style type="text/css">
   <![CDATA[
    .fil0 {fill:black;fill-rule:nonzero}
   ]]>
  </style>
 </defs>
 <g id="Слой_x0020_1">
  <metadata id="CorelCorpID_0Corel-Layer"/>
  <g id="_2270302254864">
   <path class="fil0" d="M6334.94 2049.42c-30.21,-80.73 -73.41,-150.47 -129.69,-209.2 -56.28,-58.72 -123.18,-104.36 -200.64,-137.02 -77.48,-32.6 -164.34,-48.93 -260.57,-48.93l-1289.45 0 0 1712.73 464.9 0 0 -1284.54 782.95 0c63.62,0 115.01,21.64 154.16,64.83 39.15,43.24 58.71,97.5 58.71,162.72 0,76.68 -19.56,137.43 -58.71,182.27 -39.15,44.9 -90.54,67.3 -154.16,67.3l-447.76 0 -286.26 428.17 775.62 0c96.23,0 183.09,-15.47 260.57,-46.48 77.46,-30.97 144.36,-75.01 200.64,-132.12 56.28,-57.08 99.48,-126.39 129.69,-207.98 30.16,-81.56 45.25,-172.87 45.25,-274.05l0 -12.22c0,-96.23 -15.09,-184.74 -45.25,-265.48z"/>
   <polygon class="fil0" points="6221.61,3367.36 6721.98,3367.36 7319.49,2145.17 7695.67,2914.65 7250.75,2914.38 7030.72,3363.79 8415.04,3362.59 7574.87,1644.05 7064.15,1644.04 "/>
   <polygon class="fil0" points="2930.73,2082.45 2930.73,1654.26 4303.37,1654.26 4029.32,2082.45 3395.62,2082.45 3395.62,3367 2930.73,3367 "/>
   <path class="fil0" d="M9926.27 1654.27l0 680.19 -545.63 0 -274.03 428.19 819.66 0 0 604.35 464.88 0 0 -1712.73 -464.88 0zm-1333.49 1712.73l464.88 0 0 -1712.73 -464.88 0 0 1712.73z"/>
   <path class="fil0" d="M13049.71 1654.23l-274.05 426.52 1783.7 0 274.02 -426.52 -1783.67 0zm-274.05 1713.98l1783.7 0 274.02 -426.51 -1592.82 0 0 -224.84 907.74 0 274.05 -426.51 -1646.69 0 0 1077.86z"/>
   <polygon class="fil0" points="10813.61,1654.27 10539.57,2082.45 11398.4,2082.45 11398.4,3367 11863.27,3367 11863.27,2082.45 12496.99,2082.45 12771.02,1654.27 "/>
   <path class="fil0" d="M16421.21 2405.42l528.5 -751.16 -557.87 0 -809.88 1179.35 584.79 0 369.45 533.4 557.87 0 -672.86 -961.59zm-1357.95 961.59l464.88 0 0 -1712.73 -464.88 0 0 1712.73z"/>
  </g>
 </g>
</svg>
